<?xml version="1.0" encoding="UTF-8"?>
<svg width="1200pt" height="1200pt" version="1.1" viewBox="0 0 1200 1200" xmlns="http://www.w3.org/2000/svg">
 <g>
  <path d="m306.83 921.9c0 19.047-15.441 34.488-34.488 34.488s-34.488-15.441-34.488-34.488c0-19.047 15.441-34.488 34.488-34.488s34.488 15.441 34.488 34.488"/>
  <path d="m1023.9 160.75-541.38 236.42-31.355-31.355s-16.176-7.0312-32.953 9.7578c-10.691 10.68-81.574 73.906-73.789 93.938 3.5625 9.1328 44.258 50.305 87.406 92.305 12.371 26.746 25.055 61.285 16.008 75.121-10.031 15.336-99.613 103.49-162.85 164.93-34.957-3.6484-71.184 7.8828-97.992 34.68-47.137 47.125-47.137 123.57 0 170.73 47.172 47.184 123.61 47.184 170.76 0 24.793-24.781 36.434-57.719 35.137-90.18 61.547-63.406 152.86-156.36 168.53-166.57 13.848-9.0234 48.383 3.6719 75.086 15.996 42.047 43.164 83.219 83.855 92.34 87.406 19.98 7.8008 83.258-63.109 93.926-73.801 16.754-16.754 9.7422-32.914 9.7422-32.914l-23.93-23.953 236.43-541.38c9-20.633-0.50391-30.137-21.109-21.137zm-708.84 803.87c-23.578 23.555-61.789 23.555-85.367-0.046875-23.594-23.543-23.594-61.777 0-85.32 23.578-23.605 61.789-23.594 85.367-0.035156 23.594 23.566 23.594 61.809 0 85.402zm634.69-719.16-281.62 281.63c-15.898 15.898-41.93 15.898-57.828 0l-75.371-75.371c-15.898-15.91-12.047-36.289 8.5664-45.277l397.69-173.55c20.605-8.9883 24.469-3.3477 8.5664 12.566z"/>
 </g>
</svg>
